Coordinates
version=1
nRows=19
nColumns=24
inDegrees=yes

Units are S.I. units (second, meters, Newtons, ...)
Angles are in degrees.

endheader
time	pelvis_tilt	pelvis_list	pelvis_rotation	pelvis_tx	pelvis_ty	pelvis_tz	hip_flexion_r	hip_adduction_r	hip_rotation_r	knee_angle_r	ankle_angle_r	subtalar_angle_r	mtp_angle_r	hip_flexion_l	hip_adduction_l	hip_rotation_l	knee_angle_l	ankle_angle_l	subtalar_angle_l	mtp_angle_l	lumbar_extension	lumbar_bending	lumbar_rotation
      4.90500000	     14.55851721	      1.69350519	     -2.66791714	      0.64830322	      0.94939858	     -0.00761571	    -16.79235688	     -8.04577364	     -3.96136122	    -43.52097918	     12.14506463	     22.73222344	     51.56509186	     -0.92937409	      3.07216399	     -8.58130737	    -13.46257574	      6.28591265	     12.77037086	     15.86353432	    -22.82846823	     -1.92293523	      3.37020784
      4.91000000	     14.63484636	      1.77262406	     -2.63683320	      0.65298729	      0.95009536	     -0.00822274	    -16.24725149	     -8.27011989	     -4.07897505	    -44.82546230	     11.27441586	     22.22562955	     51.43789456	     -1.34742117	      3.17129495	     -8.73684803	    -13.44209582	      6.56670561	     13.28374240	     15.77603547	    -22.88874314	     -2.09666578	      3.26591467
      4.91500000	     14.74041680	      1.84135102	     -2.60043827	      0.65767916	      0.95084482	     -0.00881220	    -15.74338321	     -8.47979232	     -4.21547597	    -46.06321729	     10.50256093	     21.63932240	     51.25262434	     -1.83467365	      3.26647582	     -8.88809103	    -13.34819513	      6.85877101	     13.71789943	     15.62576026	    -22.97975658	     -2.25741465	      3.14289959
      4.92000000	     14.84664890	      1.90099144	     -2.58128416	      0.66233026	      0.95159266	     -0.00931451	    -15.22535165	     -8.67719614	     -4.32115857	    -47.29229246	     10.00173712	     21.16346627	     48.70896884	     -2.32581323	      3.33899479	     -9.12554273	    -13.27231478	      7.41471151	     14.40941821	     12.22644819	    -23.07507593	     -2.41561908	      3.02285582
      4.92500000	     14.94978242	      1.98961518	     -2.53090616	      0.66696710	      0.95234708	     -0.00988820	    -14.71165823	     -8.90494327	     -4.51592604	    -48.44991180	      9.50193851	     20.39773608	     48.60656834	     -2.85516054	      3.46210938	     -9.25355680	    -13.06503302	      7.58428512	     14.77954849	     12.20693764	    -23.16899527	     -2.58799599	      2.85102597
      4.93000000	     15.06445362	      2.00052320	     -2.52049018	      0.67159664	      0.95315671	     -0.01028971	    -14.20926268	     -9.02763914	     -4.62640029	    -49.52765537	      9.13911011	     19.41542989	     48.35497940	     -3.43447799	      3.49335795	     -9.45761525	    -12.79539634	      7.81779658	     15.26222032	     12.12873481	    -23.27511819	     -2.69757738	      2.78893222
      4.93500000	     15.19142485	      2.03262269	     -2.52033394	      0.67618476	      0.95394765	     -0.01067109	    -13.70394964	     -9.18845550	     -4.75703844	    -50.60671960	      9.09336691	     18.75202504	     45.05235125	     -4.02031282	      3.54655503	     -9.71687470	    -12.54911752	      8.17289207	     15.85867515	     10.19214931	    -23.39747879	     -2.83027981	      2.69843460
      4.94000000	     15.30036090	      2.05615101	     -2.49887113	      0.68076048	      0.95474182	     -0.01107292	    -13.19220545	     -9.32479461	     -4.92921851	    -51.58005516	      8.98155370	     17.71145578	     44.88108952	     -4.62398120	      3.60399308	     -9.87248467	    -12.19651156	      8.30269140	     16.23459803	     10.13806658	    -23.50323814	     -2.94290110	      2.58494018
      4.94500000	     15.42286230	      2.04750068	     -2.49625588	      0.68531207	      0.95556703	     -0.01140189	    -12.69107153	     -9.42113017	     -5.07974290	    -52.48480375	      8.95113446	     16.67159105	     44.58038900	     -5.25572785	      3.62638216	    -10.08323412	    -11.82006329	      8.42649523	     16.65361862	     10.05183112	    -23.62621394	     -3.02673485	      2.50935124
      4.95000000	     15.54892669	      2.04932279	     -2.51525937	      0.68981705	      0.95635171	     -0.01168654	    -12.17619707	     -9.53984358	     -5.22445725	    -53.39059785	      9.29771980	     15.99541841	     40.85615509	     -5.88345806	      3.66076094	    -10.33374429	    -11.46761970	      8.69699756	     17.17048012	      8.40366430	    -23.75771893	     -3.12728053	      2.45182612
      4.95500000	     15.64697236	      2.01577698	     -2.50018445	      0.69431078	      0.95715294	     -0.01200839	    -11.64790664	     -9.59932208	     -5.40950533	    -54.16673867	      9.40408748	     14.99581401	     40.70214241	     -6.50730297	      3.66532333	    -10.48907877	    -11.03805062	      8.76337186	     17.50210811	      8.34532891	    -23.86093409	     -3.17165535	      2.36791792
      4.96000000	     15.76150002	      1.96404200	     -2.51265366	      0.69876641	      0.95796092	     -0.01226131	    -11.12929753	     -9.63773729	     -5.57047728	    -54.88024603	      9.60097495	     14.07209634	     40.43604169	     -7.15347338	      3.65342130	    -10.68973946	    -10.60042143	      8.83172872	     17.86689544	      8.25999076	    -23.98611845	     -3.20583834	      2.33247560
      4.96500000	     15.86599973	      1.91676697	     -2.54019328	      0.70319015	      0.95871265	     -0.01247167	    -10.59010898	     -9.68070190	     -5.70895527	    -55.57592241	     10.14715989	     13.54004922	     37.24957385	     -7.78370601	      3.64610683	    -10.91478771	    -10.17937370	      9.03226937	     18.31475123	      6.87230348	    -24.10376430	     -3.24802007	      2.29274079
      4.97000000	     15.93894775	      1.86270844	     -2.52460446	      0.70758222	      0.95942395	     -0.01278874	    -10.02950906	     -9.71092023	     -5.91909257	    -56.16751994	     10.48054127	     12.85315571	     37.17984115	     -8.37806858	      3.63988596	    -11.04266828	     -9.73826655	      9.05383487	     18.54194979	      6.83981675	    -24.19283491	     -3.25355928	      2.20494187
      4.97500000	     16.04046177	      1.74362322	     -2.55358427	      0.71192308	      0.96020492	     -0.01296647	     -9.49124702	     -9.64835246	     -6.04334194	    -56.67091873	     10.78464041	     12.20049310	     36.97407535	     -9.01815165	      3.56512485	    -11.22759860	     -9.27408804	      9.10346818	     18.86703496	      6.76564584	    -24.31925546	     -3.21059633	      2.22944980
      4.98000000	     16.09668928	      1.65903792	     -2.54975214	      0.71627614	      0.96087166	     -0.01322522	     -8.91669004	     -9.62925005	     -6.23443779	    -57.12292118	     11.25683051	     11.78082070	     36.84373890	     -9.59191320	      3.52836041	    -11.36729639	     -8.83824761	      9.12967709	     19.08597114	      6.71654137	    -24.39376420	     -3.18187046	      2.17989672
      4.98500000	     16.16731137	      1.52671653	     -2.57247198	      0.72058639	      0.96156062	     -0.01339627	     -8.35067254	     -9.54053207	     -6.35602149	    -57.52742125	     11.91699465	     11.71332473	     33.56826541	    -10.18587948	      3.43688859	    -11.55023990	     -8.40399465	      9.27663376	     19.49847852	      5.41903362	    -24.49075789	     -3.11259319	      2.19159934
      4.99000000	     16.21229684	      1.41240836	     -2.58376861	      0.72485671	      0.96218126	     -0.01362798	     -7.75922513	     -9.46889379	     -6.51225750	    -57.84552818	     12.40397691	     11.48767050	     33.56147128	    -10.74131927	      3.37801292	    -11.65304038	     -7.97330099	      9.32160455	     19.60725214	      5.38996575	    -24.56440802	     -3.04750533	      2.18873180
      4.99500000	     16.27978700	      1.28546173	     -2.62367759	      0.72912437	      0.96281978	     -0.01378754	     -7.19196487	     -9.37255898	     -6.62168876	    -58.09042393	     12.87302838	     11.40303334	     33.48007414	    -11.33426784	      3.30934691	    -11.79349578	     -7.51844070	      9.34639048	     19.81337718	      5.33158811	    -24.66144093	     -2.97967840	      2.20577441
